<svg width="1927" height="461" viewBox="0 0 1927 461" fill="none" xmlns="http://www.w3.org/2000/svg">
<path d="M539.05 306.16V167.406H634.043V198.145H575.767V224.615H625.718V255.354H575.767V306.16H539.05ZM659.363 306.16V167.406H711.022C720.984 167.406 730.163 168.758 738.559 171.462C746.956 174.023 753.715 178.577 758.839 185.124C763.962 191.67 766.523 200.707 766.523 212.234C766.523 223.334 763.962 232.371 758.839 239.344C753.715 246.318 746.956 251.441 738.559 254.714C730.163 257.987 720.984 259.624 711.022 259.624H696.079V306.16H659.363ZM696.079 230.592H708.46C715.718 230.592 721.197 229.027 724.897 225.896C728.74 222.765 730.661 218.211 730.661 212.234C730.661 206.257 728.74 202.13 724.897 199.853C721.197 197.576 715.718 196.437 708.46 196.437H696.079V230.592ZM704.404 250.018L729.167 225.682L774.208 306.16H733.222L704.404 250.018ZM839.019 308.721C827.776 308.721 817.886 306.017 809.347 300.61C800.808 295.202 794.12 287.161 789.281 276.488C784.585 265.672 782.237 252.224 782.237 236.142C782.237 220.488 784.585 207.395 789.281 196.864C794.12 186.191 800.808 178.221 809.347 172.956C817.886 167.548 827.776 164.844 839.019 164.844C850.262 164.844 860.152 167.548 868.691 172.956C877.23 178.221 883.847 186.191 888.543 196.864C893.382 207.395 895.801 220.488 895.801 236.142C895.801 252.224 893.382 265.672 888.543 276.488C883.847 287.161 877.23 295.202 868.691 300.61C860.152 306.017 850.262 308.721 839.019 308.721ZM839.019 277.128C843.004 277.128 846.419 275.634 849.265 272.645C852.112 269.657 854.317 265.174 855.883 259.197C857.448 253.077 858.231 245.393 858.231 236.142C858.231 227.319 857.448 219.99 855.883 214.155C854.317 208.178 852.112 203.766 849.265 200.92C846.419 197.932 843.004 196.437 839.019 196.437C835.034 196.437 831.619 197.932 828.773 200.92C825.926 203.766 823.72 208.178 822.155 214.155C820.59 219.99 819.807 227.319 819.807 236.142C819.807 245.393 820.59 253.077 822.155 259.197C823.72 265.174 825.926 269.657 828.773 272.645C831.619 275.634 835.034 277.128 839.019 277.128ZM915.784 306.16V167.406H952.927L976.195 229.311L987.509 260.478H988.363C987.509 252.935 986.442 244.396 985.161 234.861C983.88 225.184 983.24 216.076 983.24 207.538V167.406H1018.25V306.16H981.105L957.837 244.041L946.523 213.088H945.669C946.523 220.915 947.591 229.596 948.871 239.131C950.152 248.523 950.793 257.489 950.793 266.028V306.16H915.784ZM1076.66 306.16V198.145H1036.74V167.406H1153.29V198.145H1113.37V306.16H1076.66ZM1176.9 306.16V167.406H1271.25V198.145H1213.62V219.919H1262.72V250.658H1213.62V275.42H1273.39V306.16H1176.9ZM1299.78 306.16V167.406H1336.92L1360.19 229.311L1371.5 260.478H1372.35C1371.5 252.935 1370.43 244.396 1369.15 234.861C1367.87 225.184 1367.23 216.076 1367.23 207.538V167.406H1402.24V306.16H1365.1L1341.83 244.041L1330.51 213.088H1329.66C1330.51 220.915 1331.58 229.596 1332.86 239.131C1334.14 248.523 1334.78 257.489 1334.78 266.028V306.16H1299.78ZM1428.63 306.16V167.406H1468.54C1481.78 167.406 1493.45 169.754 1503.55 174.45C1513.8 179.004 1521.77 186.333 1527.46 196.437C1533.3 206.541 1536.21 219.776 1536.21 236.142C1536.21 252.508 1533.37 265.885 1527.68 276.274C1521.98 286.521 1514.16 294.063 1504.19 298.902C1494.37 303.74 1483.2 306.16 1470.68 306.16H1428.63ZM1465.34 276.701H1466.62C1472.6 276.701 1478.01 275.563 1482.85 273.286C1487.69 271.009 1491.53 266.953 1494.37 261.118C1497.22 255.283 1498.64 246.958 1498.64 236.142C1498.64 225.327 1497.22 217.144 1494.37 211.594C1491.53 205.901 1487.69 202.059 1482.85 200.066C1478.01 197.932 1472.6 196.864 1466.62 196.864H1465.34V276.701ZM1607 308.721C1598.75 308.721 1592.06 306.017 1586.94 300.61C1581.81 295.202 1579.25 288.655 1579.25 280.97C1579.25 273.428 1581.81 266.953 1586.94 261.545C1592.06 255.995 1598.75 253.22 1607 253.22C1615.4 253.22 1622.09 255.995 1627.07 261.545C1632.19 266.953 1634.75 273.428 1634.75 280.97C1634.75 288.655 1632.19 295.202 1627.07 300.61C1622.09 306.017 1615.4 308.721 1607 308.721ZM1682.06 306.16V167.406H1719.42L1730.73 212.661L1734.57 230.592H1735.43L1739.27 212.661L1750.58 167.406H1787.94V306.16H1757.63V273.499C1757.63 269.372 1757.77 264.178 1758.05 257.916C1758.48 251.654 1758.91 245.108 1759.33 238.277C1759.76 231.304 1760.26 224.686 1760.83 218.424C1761.4 212.163 1761.9 207.04 1762.32 203.055H1761.68L1749.94 244.254L1742.68 269.443H1726.46L1718.78 244.254L1708.1 203.055H1707.25C1707.68 207.04 1708.17 212.163 1708.74 218.424C1709.31 224.686 1709.81 231.304 1710.24 238.277C1710.66 245.108 1711.02 251.654 1711.3 257.916C1711.73 264.178 1711.94 269.372 1711.94 273.499V306.16H1682.06ZM1863.42 308.721C1854.32 308.721 1846.49 307.44 1839.94 304.879C1833.4 302.175 1827.99 298.404 1823.72 293.565C1819.59 288.584 1816.46 282.678 1814.33 275.847C1812.33 268.874 1811.34 261.047 1811.34 252.366V167.406H1848.05V256.635C1848.05 260.62 1848.48 264.178 1849.33 267.309C1850.33 270.297 1851.97 272.716 1854.24 274.566C1856.52 276.274 1859.58 277.128 1863.42 277.128C1867.41 277.128 1870.54 276.274 1872.82 274.566C1875.09 272.716 1876.73 270.297 1877.73 267.309C1878.72 264.178 1879.22 260.62 1879.22 256.635V167.406H1914.66V252.366C1914.66 261.047 1913.66 268.874 1911.67 275.847C1909.82 282.678 1906.83 288.584 1902.7 293.565C1898.57 298.404 1893.24 302.175 1886.69 304.879C1880.29 307.44 1872.53 308.721 1863.42 308.721Z" fill="#009E8B"/>
<path d="M200.351 366.279C239.673 374.917 327.227 379.12 374.981 312.646M3.86743 263.847C-12.4288 101.349 118.676 46.8003 187.652 46.8003C314.104 46.8003 369.437 144.204 369.437 231.68" stroke="#009E8B" stroke-width="4.20104" stroke-linecap="round" stroke-linejoin="round"/>
<circle cx="230.326" cy="230.326" r="228.226" stroke="#009E8B" stroke-width="4.20104"/>
<circle cx="230.326" cy="230.326" r="138.751" stroke="url(#paint0_linear_1_84)" stroke-width="4.20104"/>
<path d="M298.786 12.1191C349.39 38.2911 446.432 136.958 390.839 289.246" stroke="url(#paint1_linear_1_84)" stroke-width="4.20104" stroke-linecap="round"/>
<path d="M243.605 416.109C312.087 417.398 469.875 369.586 458.34 213.53" stroke="#009E8B" stroke-width="4.20104" stroke-linecap="round"/>
<path d="M254.177 93.0848C136.224 67.1004 -48.7347 249.988 144.654 422.942" stroke="url(#paint2_linear_1_84)" stroke-width="4.20104" stroke-linecap="round"/>
<path fill-rule="evenodd" clip-rule="evenodd" d="M205.673 137.38H237.377L198.142 229.87L198.134 229.89L162.483 314.715H130.788L205.673 137.38ZM255.864 156.268L329.921 230.375L196.281 297.534L213.404 256.723L282.609 223.946L243.787 184.556L255.864 156.268Z" fill="#009E8B"/>
<defs>
<linearGradient id="paint0_linear_1_84" x1="132.205" y1="133.16" x2="322.347" y2="307.545" gradientUnits="userSpaceOnUse">
<stop stop-color="#009E8B" stop-opacity="0"/>
<stop offset="1" stop-color="#009E8B" stop-opacity="0.9375"/>
</linearGradient>
<linearGradient id="paint1_linear_1_84" x1="254.726" y1="-471.899" x2="353.15" y2="289.246" gradientUnits="userSpaceOnUse">
<stop stop-color="#009E8B"/>
<stop offset="1" stop-color="#009E8B" stop-opacity="0"/>
</linearGradient>
<linearGradient id="paint2_linear_1_84" x1="156.469" y1="90.5991" x2="156.469" y2="422.942" gradientUnits="userSpaceOnUse">
<stop stop-color="#009E8B" stop-opacity="0"/>
<stop offset="1" stop-color="#009E8B"/>
</linearGradient>
</defs>
</svg>
