<svg width="9509" height="9509" viewBox="0 0 9509 9509" fill="none" xmlns="http://www.w3.org/2000/svg">
<g clip-path="url(#clip0_207_36)">
<path d="M4141.96 7532.58C4126.32 7529.15 4110.86 7539.04 4107.43 7554.67C4103.99 7570.31 4113.88 7585.77 4129.52 7589.2L4141.96 7532.58ZM3873.6 966.07V995.057V966.07ZM50.9999 5449.34C52.5974 5465.27 66.8056 5476.89 82.7348 5475.29C98.6641 5473.7 110.282 5459.49 108.685 5443.56L50.9999 5449.34ZM7764.08 6470.68C7773.42 6457.68 7770.45 6439.57 7757.45 6430.23C7744.45 6420.89 7726.33 6423.86 7716.99 6436.86L7764.08 6470.68ZM7597.11 4782.44C7597.11 4798.45 7610.09 4811.43 7626.1 4811.43C7642.11 4811.43 7655.09 4798.45 7655.09 4782.44H7597.11ZM3873.6 937.083C3155.47 937.083 2116.01 1220.63 1297.71 1926.42C477.961 2633.46 -118.13 3762.87 50.9999 5449.34L108.685 5443.56C-58.5802 3775.67 530.295 2664.88 1335.57 1970.32C2142.29 1274.52 3167.91 995.057 3873.6 995.057V937.083ZM4129.52 7589.2C4538.19 7678.98 5197 7745.69 5878.24 7617.26C6559.86 7488.75 7265.69 7164.44 7764.08 6470.68L7716.99 6436.86C7229.61 7115.3 6538.91 7433.7 5867.5 7560.29C5195.71 7686.94 4545 7621.12 4141.96 7532.58L4129.52 7589.2ZM7655.09 4782.44C7655.09 3873.9 7367.81 2912.88 6750.9 2178.47C6133.35 1443.29 5186.98 937.083 3873.6 937.083V995.057C5170.49 995.057 6100.37 1494.17 6706.51 2215.75C7313.28 2938.1 7597.11 3885.26 7597.11 4782.44H7655.09Z" fill="url(#paint0_linear_207_36)"/>
<circle cx="4754.5" cy="4754.5" r="4725.51" stroke="#1C6FBC" stroke-width="57.9742"/>
<circle cx="4754.5" cy="4754.5" r="2878.54" stroke="url(#paint1_linear_207_36)" stroke-width="57.9742"/>
<path d="M6167.68 250.168C7212.26 790.422 9215.46 2827.15 8067.88 5970.74" stroke="url(#paint2_linear_207_36)" stroke-width="57.9742" stroke-linecap="round"/>
<path d="M5028.62 8589.5C6442.24 8616.12 9699.37 7629.16 9461.26 4407.77" stroke="#1C6FBC" stroke-width="57.9742" stroke-linecap="round"/>
<path d="M5240.61 1949.8C5256.24 1953.25 5271.71 1943.36 5275.15 1927.73C5278.6 1912.1 5268.71 1896.63 5253.08 1893.19L5240.61 1949.8ZM2966.7 8752.16C2978.64 8762.84 2996.96 8761.81 3007.63 8749.88C3018.31 8737.95 3017.28 8719.62 3005.35 8708.95L2966.7 8752.16ZM5253.08 1893.19C4636.04 1757.26 3933.87 1894.82 3291.56 2231.39C2649.01 2568.08 2064.06 3105.03 1681.22 3771.62C1298.22 4438.49 1117.41 5235.38 1284.29 6090.59C1451.16 6945.7 1965.08 7856.38 2966.7 8752.16L3005.35 8708.95C2010.96 7819.63 1505.13 6919.58 1341.19 6079.48C1177.28 5239.47 1354.64 4456.66 1731.49 3800.49C2108.51 3144.04 2685.09 2614.62 3318.46 2282.74C3952.07 1950.74 4640.22 1817.54 5240.61 1949.8L5253.08 1893.19Z" fill="url(#paint3_linear_207_36)"/>
<path fill-rule="evenodd" clip-rule="evenodd" d="M4245.6 2835.87H4900.06L4090.16 4745.09L4089.99 4745.5L3354.06 6496.48H2699.8L4245.6 2835.87ZM5281.68 3225.76L6810.39 4755.51L4051.74 6141.84L4405.19 5299.4L5833.76 4622.79L5032.38 3809.69L5281.68 3225.76Z" fill="#1C6FBC"/>
</g>
<defs>
<linearGradient id="paint0_linear_207_36" x1="8811.37" y1="5840.03" x2="3895.85" y2="7659.73" gradientUnits="userSpaceOnUse">
<stop offset="0.0439179" stop-color="#1C6FBC"/>
<stop offset="1" stop-color="#009E8B" stop-opacity="0"/>
</linearGradient>
<linearGradient id="paint1_linear_207_36" x1="2729.05" y1="2748.74" x2="6654.03" y2="6348.48" gradientUnits="userSpaceOnUse">
<stop stop-color="#1C6FBC" stop-opacity="0"/>
<stop offset="1" stop-color="#1C6FBC"/>
</linearGradient>
<linearGradient id="paint2_linear_207_36" x1="5258.18" y1="-9741.14" x2="7289.88" y2="5970.74" gradientUnits="userSpaceOnUse">
<stop stop-color="#1C6FBC"/>
<stop offset="1" stop-color="#1C6FBC"/>
</linearGradient>
<linearGradient id="paint3_linear_207_36" x1="3229.91" y1="1870.18" x2="3229.91" y2="8730.56" gradientUnits="userSpaceOnUse">
<stop stop-color="#1C6FBC" stop-opacity="0"/>
<stop offset="1" stop-color="#1C6FBC"/>
</linearGradient>
<clipPath id="clip0_207_36">
<rect width="9509" height="9509" fill="white"/>
</clipPath>
</defs>
</svg>
