<svg width="2154" height="471" viewBox="0 0 2154 471" fill="none" xmlns="http://www.w3.org/2000/svg">
<circle cx="235.5" cy="235.5" r="235.5" fill="#1C6FBC"/>
<path fill-rule="evenodd" clip-rule="evenodd" d="M209.102 91.2173H260.687L196.85 241.678L196.837 241.71L138.831 379.701H87.2617L209.102 91.2173ZM290.766 121.943L411.26 242.499L193.822 351.752L221.681 285.362L334.282 232.04L271.116 167.961L290.766 121.943Z" fill="#EBEBEB"/>
<path d="M574.734 321.895V164.114H682.753V199.069H616.485V229.168H673.286V264.123H616.485V321.895H574.734ZM711.544 321.895V164.114H770.287C781.615 164.114 792.053 165.652 801.6 168.726C811.148 171.639 818.835 176.818 824.661 184.262C830.486 191.706 833.399 201.982 833.399 215.089C833.399 227.712 830.486 237.988 824.661 245.917C818.835 253.847 811.148 259.673 801.6 263.394C792.053 267.116 781.615 268.977 770.287 268.977H753.295V321.895H711.544ZM753.295 235.965H767.374C775.627 235.965 781.858 234.185 786.065 230.625C790.434 227.065 792.619 221.886 792.619 215.089C792.619 208.293 790.434 203.6 786.065 201.011C781.858 198.421 775.627 197.127 767.374 197.127H753.295V235.965ZM762.762 258.054L790.92 230.382L842.138 321.895H795.532L762.762 258.054ZM915.835 324.807C903.051 324.807 891.804 321.733 882.095 315.583C872.385 309.434 864.779 300.291 859.277 288.154C853.937 275.855 851.267 260.563 851.267 242.276C851.267 224.475 853.937 209.587 859.277 197.612C864.779 185.475 872.385 176.413 882.095 170.426C891.804 164.276 903.051 161.201 915.835 161.201C928.62 161.201 939.867 164.276 949.576 170.426C959.286 176.413 966.811 185.475 972.151 197.612C977.653 209.587 980.404 224.475 980.404 242.276C980.404 260.563 977.653 275.855 972.151 288.154C966.811 300.291 959.286 309.434 949.576 315.583C939.867 321.733 928.62 324.807 915.835 324.807ZM915.835 288.882C920.367 288.882 924.25 287.183 927.487 283.785C930.723 280.386 933.232 275.289 935.012 268.492C936.792 261.533 937.682 252.795 937.682 242.276C937.682 232.243 936.792 223.909 935.012 217.274C933.232 210.477 930.723 205.461 927.487 202.224C924.25 198.826 920.367 197.127 915.835 197.127C911.304 197.127 907.421 198.826 904.184 202.224C900.947 205.461 898.439 210.477 896.659 217.274C894.879 223.909 893.989 232.243 893.989 242.276C893.989 252.795 894.879 261.533 896.659 268.492C898.439 275.289 900.947 280.386 904.184 283.785C907.421 287.183 911.304 288.882 915.835 288.882ZM1003.13 321.895V164.114H1045.36L1071.82 234.509L1084.69 269.948H1085.66C1084.69 261.372 1083.47 251.662 1082.02 240.82C1080.56 229.816 1079.83 219.459 1079.83 209.749V164.114H1119.64V321.895H1077.4L1050.95 251.258L1038.08 216.06H1037.11C1038.08 224.961 1039.29 234.832 1040.75 245.675C1042.21 256.355 1042.94 266.55 1042.94 276.26V321.895H1003.13ZM1186.06 321.895V199.069H1140.66V164.114H1273.2V199.069H1227.81V321.895H1186.06ZM1300.05 321.895V164.114H1407.34V199.069H1341.8V223.828H1397.63V258.782H1341.8V286.94H1409.77V321.895H1300.05ZM1439.77 321.895V164.114H1482.01L1508.47 234.509L1521.33 269.948H1522.3C1521.33 261.372 1520.12 251.662 1518.66 240.82C1517.21 229.816 1516.48 219.459 1516.48 209.749V164.114H1556.29V321.895H1514.05L1487.59 251.258L1474.73 216.06H1473.76C1474.73 224.961 1475.94 234.832 1477.4 245.675C1478.85 256.355 1479.58 266.55 1479.58 276.26V321.895H1439.77ZM1586.29 321.895V164.114H1631.68C1646.73 164.114 1660 166.784 1671.49 172.125C1683.14 177.303 1692.21 185.637 1698.68 197.127C1705.31 208.616 1708.63 223.666 1708.63 242.276C1708.63 260.886 1705.4 276.098 1698.92 287.911C1692.45 299.563 1683.55 308.139 1672.22 313.641C1661.05 319.143 1648.35 321.895 1634.11 321.895H1586.29ZM1628.04 288.397H1629.5C1636.3 288.397 1642.44 287.102 1647.95 284.513C1653.45 281.924 1657.82 277.312 1661.05 270.677C1664.29 264.042 1665.91 254.575 1665.91 242.276C1665.91 229.977 1664.29 220.672 1661.05 214.361C1657.82 207.888 1653.45 203.519 1647.95 201.253C1642.44 198.826 1636.3 197.612 1629.5 197.612H1628.04V288.397ZM1789.13 324.807C1779.74 324.807 1772.13 321.733 1766.31 315.583C1760.48 309.434 1757.57 301.99 1757.57 293.251C1757.57 284.675 1760.48 277.312 1766.31 271.162C1772.13 264.851 1779.74 261.695 1789.13 261.695C1798.67 261.695 1806.28 264.851 1811.94 271.162C1817.77 277.312 1820.68 284.675 1820.68 293.251C1820.68 301.99 1817.77 309.434 1811.94 315.583C1806.28 321.733 1798.67 324.807 1789.13 324.807ZM1874.48 321.895V164.114H1916.95L1929.82 215.575L1934.19 235.965H1935.16L1939.53 215.575L1952.39 164.114H1994.87V321.895H1960.4V284.756C1960.4 280.063 1960.57 274.156 1960.89 267.036C1961.38 259.915 1961.86 252.471 1962.35 244.704C1962.83 236.774 1963.4 229.249 1964.05 222.129C1964.69 215.009 1965.26 209.183 1965.74 204.652H1965.02L1951.67 251.5L1943.41 280.143H1924.96L1916.23 251.5L1904.09 204.652H1903.12C1903.6 209.183 1904.17 215.009 1904.82 222.129C1905.46 229.249 1906.03 236.774 1906.52 244.704C1907 252.471 1907.41 259.915 1907.73 267.036C1908.22 274.156 1908.46 280.063 1908.46 284.756V321.895H1874.48ZM2080.71 324.807C2070.35 324.807 2061.45 323.351 2054.01 320.438C2046.56 317.363 2040.41 313.075 2035.56 307.573C2030.87 301.909 2027.31 295.193 2024.88 287.426C2022.61 279.496 2021.48 270.596 2021.48 260.724V164.114H2063.23V265.579C2063.23 270.11 2063.72 274.156 2064.69 277.716C2065.82 281.114 2067.68 283.865 2070.27 285.969C2072.86 287.911 2076.34 288.882 2080.71 288.882C2085.24 288.882 2088.8 287.911 2091.39 285.969C2093.98 283.865 2095.84 281.114 2096.97 277.716C2098.1 274.156 2098.67 270.11 2098.67 265.579V164.114H2138.97V260.724C2138.97 270.596 2137.83 279.496 2135.57 287.426C2133.46 295.193 2130.07 301.909 2125.37 307.573C2120.68 313.075 2114.61 317.363 2107.17 320.438C2099.88 323.351 2091.07 324.807 2080.71 324.807Z" fill="#1C6FBC"/>
</svg>
