<svg width="218" height="218" fill="none" xmlns="http://www.w3.org/2000/svg"><path d="M0 65.514c0 9.619 6.24 17.743 14.884 20.668l.195.065.585.195 75.717 23.073c.52.195 1.105.325 1.69.325a5.381 5.381 0 0 0 5.395-5.395c0-1.95-1.04-3.64-2.6-4.615l-59.99-50.955c-3.77-3.25-8.709-5.2-14.103-5.2C9.749 43.676 0 53.49 0 65.515z" fill="url(#paint0_linear)"/><path d="M83.582 2.535l-73.378 44.52C4.094 50.89 0 57.716 0 65.514c0 12.024 9.75 21.838 21.773 21.838 5.524 0 10.529-2.08 14.364-5.46l65.708-53.555c.195-.13.325-.26.52-.455 3.38-2.924 5.525-7.214 5.525-12.024C107.89 7.085 100.805 0 92.031 0c-3.054 0-5.98.975-8.449 2.535z" fill="url(#paint1_linear)"/><path d="M76.303 15.858c0 4.81 2.145 9.165 5.524 12.024l.195.195 118.159 99.571c1.885 1.56 4.225 2.47 6.889 2.47 5.915 0 10.659-4.81 10.659-10.724 0-2.99-1.235-5.72-3.184-7.67L103.34 4.68C100.48 1.82 96.516 0 92.161 0a15.838 15.838 0 0 0-15.858 15.858z" fill="url(#paint2_linear)"/><path d="M200.831 110.815L66.229 176.523c-7.085 3.575-11.894 10.919-11.894 19.434 0 12.023 9.749 21.773 21.773 21.773 4.744 0 9.099-1.56 12.674-4.095l124.463-85.402c2.794-1.95 4.614-5.135 4.614-8.774 0-5.915-4.809-10.724-10.659-10.724-2.469 0-4.614.78-6.369 2.08z" fill="url(#paint3_linear)"/><path d="M152.411 65.319H65.319v87.092h87.092V65.319z" fill="#010101"/><path d="M107.5 136.097H74.808v5.46H107.5v-5.46zm-34.057-48.29l2.405-2.275c.65.78 1.3 1.235 2.145 1.235.91 0 1.56-.65 1.56-1.885v-8.58h3.77v8.645c0 1.69-.456 2.925-1.366 3.834-.91.91-2.145 1.365-3.704 1.365-2.405-.065-3.835-1.04-4.81-2.34zm11.504-11.57H95.93v3.186h-7.215v2.08h6.5v2.989h-6.5v2.145h7.28v3.184h-11.05V76.239zm16.313 3.316h-4.094v-3.315h11.894v3.314h-4.03v10.27h-3.77v-10.27zM74.938 95.215h6.434c1.69 0 2.925.455 3.705 1.235.52.585.845 1.3.845 2.21v.065c0 1.56-.91 2.534-2.08 3.054 1.625.52 2.73 1.495 2.73 3.315v.065c0 2.34-1.885 3.77-5.135 3.77h-6.434V95.216h-.065zm7.28 4.16c0-.78-.586-1.17-1.69-1.17h-1.886v2.405h1.82c1.105 0 1.755-.39 1.755-1.235zm-1.3 3.899h-2.34v2.535h2.34c1.17 0 1.82-.455 1.82-1.235v-.065c.064-.78-.52-1.235-1.82-1.235zm6.824-8.059h6.044c2.08 0 3.51.52 4.42 1.43.78.78 1.235 1.82 1.235 3.185v.065c0 2.079-1.105 3.444-2.795 4.224l3.25 4.745H95.54l-2.73-4.095h-1.235v4.095h-3.77V95.216h-.064zm5.914 6.499c1.235 0 2.015-.649 2.015-1.624v-.065c0-1.105-.78-1.625-2.015-1.625h-2.08v3.314h2.08z" fill="#fff"/><path d="M104.64 95.086h3.64l5.784 13.714h-4.029l-.975-2.47h-5.265l-.975 2.47h-3.9l5.72-13.714zm3.315 8.319l-1.495-3.835-1.56 3.835h3.055zm10.464-8.254h-3.77v13.584h3.77V95.151zm1.43 0h3.509l4.94 7.214v-7.214h3.704v13.584h-3.314l-5.07-7.41v7.41h-3.769V95.151zm12.803 11.569l2.08-2.535c1.365 1.04 2.86 1.625 4.42 1.625 1.04 0 1.56-.325 1.56-.91v-.065c0-.585-.455-.845-2.34-1.3-2.925-.65-5.135-1.495-5.135-4.224v-.065c0-2.535 2.015-4.355 5.265-4.355 2.34 0 4.094.65 5.589 1.82l-1.885 2.665c-1.234-.91-2.599-1.365-3.834-1.365-.91 0-1.365.39-1.365.845v.065c0 .65.455.91 2.34 1.3 3.119.65 5.069 1.689 5.069 4.224v.065c0 2.795-2.21 4.42-5.524 4.42-2.275.065-4.55-.715-6.24-2.21z" fill="#fff"/><defs><linearGradient id="paint0_linear" x1="35.073" y1="76.258" x2="86.163" y2="117.63" gradientUnits="userSpaceOnUse"><stop stop-color="#EE3B8C"/><stop offset=".21" stop-color="#EE3B8C"/><stop offset=".857" stop-color="#5653A3"/><stop offset="1" stop-color="#5653A3"/></linearGradient><linearGradient id="paint1_linear" x1=".021" y1="43.675" x2="107.945" y2="43.675" gradientUnits="userSpaceOnUse"><stop stop-color="#EE3B8C"/><stop offset=".021" stop-color="#EE3B8C"/><stop offset=".737" stop-color="#EE335A"/><stop offset="1" stop-color="#EE335A"/></linearGradient><linearGradient id="paint2_linear" x1="76.284" y1="65.09" x2="217.751" y2="65.09" gradientUnits="userSpaceOnUse"><stop stop-color="#EE335A"/><stop offset=".231" stop-color="#EE335A"/><stop offset=".857" stop-color="#FDB614"/><stop offset="1" stop-color="#FDB614"/></linearGradient><linearGradient id="paint3_linear" x1="54.31" y1="163.25" x2="217.751" y2="163.25" gradientUnits="userSpaceOnUse"><stop stop-color="#F7EE55"/><stop offset=".143" stop-color="#F7EE55"/><stop offset=".986" stop-color="#FDB614"/><stop offset="1" stop-color="#FDB614"/></linearGradient></defs></svg>