<svg width="1112" height="295" viewBox="0 0 1112 295" fill="none" xmlns="http://www.w3.org/2000/svg">
<path d="M470.337 237.154C451.842 237.154 435.973 233.348 422.73 225.737C409.563 218.126 399.441 207.547 392.362 193.999C385.284 180.376 381.745 164.621 381.745 146.735C381.745 128.773 385.284 113.019 392.362 99.4711C399.517 85.8475 409.677 75.2301 422.844 67.6191C436.087 60.0082 451.88 56.2027 470.223 56.2027C486.434 56.2027 500.552 59.1329 512.578 64.9934C524.679 70.8538 534.117 79.1498 540.891 89.8813C547.74 100.537 551.356 113.057 551.736 127.441H499.563C498.497 118.46 495.453 111.42 490.43 106.321C485.483 101.222 479.013 98.6719 471.022 98.6719C464.553 98.6719 458.882 100.499 454.011 104.152C449.14 107.729 445.335 113.057 442.595 120.135C439.931 127.137 438.599 135.813 438.599 146.164C438.599 156.515 439.931 165.268 442.595 172.422C445.335 179.5 449.14 184.866 454.011 188.519C458.882 192.097 464.553 193.885 471.022 193.885C476.197 193.885 480.764 192.782 484.722 190.574C488.755 188.367 492.066 185.133 494.654 180.87C497.242 176.532 498.878 171.281 499.563 165.116H551.736C551.203 179.577 547.588 192.211 540.891 203.018C534.269 213.826 524.946 222.236 512.92 228.249C500.971 234.185 486.777 237.154 470.337 237.154Z" fill="black"/>
<path d="M817.679 236.354C804.741 236.354 792.982 233.006 782.402 226.308C771.823 219.61 763.375 209.564 757.058 196.169C750.741 182.773 747.582 166.143 747.582 146.279C747.582 125.653 750.855 108.68 757.4 95.3612C763.946 82.042 772.508 72.1857 783.087 65.7925C793.743 59.3993 805.197 56.2027 817.451 56.2027C826.66 56.2027 834.538 57.801 841.083 60.9976C847.628 64.1181 853.032 68.1519 857.294 73.0991C861.557 78.0462 864.791 83.1836 866.998 88.5113H868.14V0.0336914H923.967V233.843H868.711V205.416H866.998C864.639 210.82 861.29 215.881 856.952 220.6C852.614 225.319 847.172 229.124 840.626 232.016C834.157 234.908 826.508 236.354 817.679 236.354ZM837.087 192.858C843.861 192.858 849.645 190.955 854.44 187.15C859.235 183.268 862.927 177.826 865.514 170.824C868.102 163.822 869.396 155.602 869.396 146.164C869.396 136.575 868.102 128.317 865.514 121.391C863.003 114.465 859.311 109.137 854.44 105.408C849.645 101.678 843.861 99.8136 837.087 99.8136C830.161 99.8136 824.301 101.716 819.506 105.522C814.711 109.327 811.058 114.693 808.546 121.619C806.111 128.545 804.893 136.727 804.893 146.164C804.893 155.602 806.149 163.822 808.66 170.824C811.172 177.826 814.787 183.268 819.506 187.15C824.301 190.955 830.161 192.858 837.087 192.858Z" fill="black"/>
<path d="M1028.38 237.154C1010.04 237.154 994.209 233.538 980.89 226.308C967.647 219.001 957.448 208.612 950.294 195.141C943.216 181.594 939.677 165.496 939.677 146.849C939.677 128.735 943.254 112.904 950.408 99.3569C957.563 85.7333 967.647 75.154 980.662 67.6191C993.677 60.0082 1009.01 56.2027 1026.67 56.2027C1039.15 56.2027 1050.57 58.1435 1060.92 62.0251C1071.27 65.9067 1080.21 71.653 1087.75 79.2639C1095.28 86.8749 1101.14 96.2745 1105.33 107.463C1109.52 118.575 1111.61 131.323 1111.61 145.708V159.636H959.199V127.213H1059.66C1059.59 121.277 1058.18 115.987 1055.44 111.344C1052.7 106.702 1048.93 103.086 1044.14 100.499C1039.42 97.8347 1033.98 96.5028 1027.81 96.5028C1021.57 96.5028 1015.98 97.9108 1011.03 100.727C1006.08 103.467 1002.16 107.234 999.271 112.029C996.378 116.748 994.856 122.114 994.704 128.126V161.12C994.704 168.274 996.112 174.553 998.928 179.957C1001.74 185.285 1005.74 189.433 1010.92 192.401C1016.09 195.369 1022.26 196.854 1029.41 196.854C1034.36 196.854 1038.85 196.169 1042.88 194.799C1046.92 193.429 1050.38 191.412 1053.27 188.748C1056.16 186.084 1058.33 182.811 1059.78 178.93L1111.04 180.414C1108.91 191.906 1104.23 201.915 1097 210.439C1089.84 218.887 1080.44 225.471 1068.8 230.19C1057.15 234.832 1043.68 237.154 1028.38 237.154Z" fill="black"/>
<path d="M112.357 156.32V59.3018H166.589V230H114.802V198.216H113.024C109.245 208.663 102.8 216.961 93.6868 223.11C84.6481 229.185 73.7201 232.223 60.9029 232.223C49.2712 232.223 39.047 229.555 30.2306 224.221C21.4141 218.887 14.561 211.441 9.67123 201.884C4.78144 192.252 2.2995 180.991 2.22541 168.1V59.3018H56.5688V157.431C56.6429 166.692 59.0878 173.99 63.9035 179.324C68.7192 184.658 75.276 187.325 83.5738 187.325C88.9822 187.325 93.8349 186.14 98.132 183.769C102.503 181.324 105.948 177.805 108.467 173.212C111.06 168.544 112.357 162.914 112.357 156.32ZM188.661 294.012V59.3018H242.449V88.5294H244.116C246.338 83.3432 249.487 78.3423 253.562 73.5266C257.711 68.7109 262.971 64.7843 269.343 61.7466C275.788 58.635 283.493 57.0791 292.458 57.0791C304.312 57.0791 315.388 60.1908 325.686 66.4142C336.059 72.6375 344.431 82.2319 350.802 95.1973C357.174 108.163 360.359 124.684 360.359 144.762C360.359 164.099 357.285 180.287 351.136 193.327C345.06 206.366 336.837 216.146 326.464 222.665C316.166 229.185 304.72 232.445 292.125 232.445C283.53 232.445 276.085 231.037 269.787 228.222C263.49 225.407 258.192 221.702 253.895 217.109C249.672 212.515 246.412 207.588 244.116 202.328H243.004V294.012H188.661ZM241.893 144.651C241.893 153.838 243.116 161.839 245.56 168.655C248.079 175.471 251.673 180.769 256.34 184.547C261.082 188.252 266.75 190.104 273.343 190.104C280.011 190.104 285.679 188.252 290.346 184.547C295.014 180.769 298.533 175.471 300.904 168.655C303.349 161.839 304.571 153.838 304.571 144.651C304.571 135.464 303.349 127.5 300.904 120.758C298.533 114.016 295.014 108.792 290.346 105.088C285.753 101.384 280.085 99.5314 273.343 99.5314C266.675 99.5314 261.008 101.347 256.34 104.977C251.673 108.607 248.079 113.793 245.56 120.535C243.116 127.277 241.893 135.316 241.893 144.651Z" fill="black"/>
<path d="M566.892 147.901V129.841C574.691 129.841 580.096 128.216 583.109 124.967C586.123 121.67 587.629 116.51 587.629 109.487V98.3062C587.629 87.9859 589.113 80.0067 592.082 74.3687C595.095 68.683 599.128 64.6217 604.179 62.185C609.274 59.7482 615.035 58.2909 621.46 57.8131C627.885 57.2876 634.509 57.0248 641.333 57.0248V85.6925C636.015 85.6925 632.072 86.3375 629.502 87.6275C626.932 88.9176 625.248 90.8765 624.451 93.5044C623.653 96.1323 623.254 99.453 623.254 103.466V119.234C623.254 122.817 622.501 126.329 620.994 129.769C619.532 133.161 616.807 136.219 612.819 138.943C608.831 141.666 603.138 143.84 595.738 145.465C588.338 147.089 578.723 147.901 566.892 147.901ZM641.333 237.058C634.509 237.058 627.885 236.795 621.46 236.269C615.035 235.792 609.274 234.334 604.179 231.898C599.128 229.461 595.095 225.4 592.082 219.714C589.113 214.076 587.629 206.097 587.629 195.776V184.596C587.629 177.572 586.123 172.436 583.109 169.187C580.096 165.89 574.691 164.242 566.892 164.242V146.181C578.723 146.181 588.338 146.994 595.738 148.618C603.138 150.243 608.831 152.417 612.819 155.14C616.807 157.863 619.532 160.945 620.994 164.385C622.501 167.778 623.254 171.266 623.254 174.849V190.616C623.254 194.582 623.653 197.903 624.451 200.578C625.248 203.206 626.932 205.165 629.502 206.455C632.072 207.745 636.015 208.39 641.333 208.39V237.058ZM566.892 164.242V129.841H596.137V164.242H566.892Z" fill="#0000EE"/>
<path d="M730.851 146.181V164.242C723.097 164.242 717.691 165.89 714.633 169.187C711.62 172.436 710.114 177.572 710.114 184.596V195.776C710.114 206.097 708.607 214.076 705.594 219.714C702.625 225.4 698.593 229.461 693.498 231.898C688.446 234.334 682.708 235.792 676.283 236.269C669.903 236.795 663.278 237.058 656.41 237.058V208.39C661.727 208.39 665.671 207.745 668.241 206.455C670.811 205.165 672.495 203.206 673.292 200.578C674.09 197.903 674.489 194.582 674.489 190.616V174.849C674.489 171.266 675.22 167.778 676.682 164.385C678.189 160.945 680.936 157.863 684.924 155.14C688.911 152.417 694.605 150.243 702.005 148.618C709.405 146.994 719.02 146.181 730.851 146.181ZM656.41 57.0248C663.278 57.0248 669.903 57.2876 676.283 57.8131C682.708 58.2909 688.446 59.7482 693.498 62.185C698.593 64.6217 702.625 68.683 705.594 74.3687C708.607 80.0067 710.114 87.9859 710.114 98.3062V109.487C710.114 116.51 711.62 121.67 714.633 124.967C717.691 128.216 723.097 129.841 730.851 129.841V147.901C719.02 147.901 709.405 147.089 702.005 145.465C694.605 143.84 688.911 141.666 684.924 138.943C680.936 136.219 678.189 133.161 676.682 129.769C675.22 126.329 674.489 122.817 674.489 119.234V103.466C674.489 99.453 674.09 96.1323 673.292 93.5044C672.495 90.8765 670.811 88.9176 668.241 87.6275C665.671 86.3375 661.727 85.6925 656.41 85.6925V57.0248ZM730.851 129.841V164.242H701.606V129.841H730.851Z" fill="#0000EE"/>
<path d="M189.575 291.146L189.991 292.065H191H237.5H239.928L238.925 289.854C230.091 270.379 222.237 257.267 215.23 248.888C208.242 240.533 201.924 236.682 196.137 236.19C190.292 235.692 185.471 238.655 181.597 242.762C178.34 246.215 175.62 250.61 173.36 254.849L173.342 254.821L173.327 254.851C170.415 250.705 167.636 247.346 164.979 244.679C164.947 241.023 164.933 236.927 164.933 232.354V230.794L163.374 230.789L117.94 230.633L116.37 230.628L116.37 232.198C116.37 244.606 116.465 253.541 116.708 259.739C116.83 262.837 116.99 265.276 117.198 267.136C117.401 268.952 117.663 270.358 118.05 271.296C118.236 271.748 118.539 272.316 119.079 272.695C119.755 273.171 120.537 273.174 121.183 272.884C121.713 272.645 122.114 272.234 122.397 271.891C122.701 271.521 122.995 271.074 123.277 270.594C124.128 269.147 125.134 266.939 126.274 264.437C126.608 263.705 126.953 262.948 127.309 262.177C128.914 258.703 130.8 254.814 133.028 251.22C135.262 247.615 137.787 244.398 140.631 242.204C143.447 240.032 146.518 238.904 149.955 239.32C153.32 239.727 157.273 241.642 161.862 246.008C161.955 255.314 162.166 261.707 162.548 265.825C162.742 267.918 162.988 269.514 163.317 270.63C163.479 271.181 163.692 271.721 164 272.161C164.313 272.608 164.852 273.121 165.669 273.203C166.445 273.28 167.055 272.921 167.425 272.625C167.81 272.318 168.144 271.917 168.433 271.514C169.016 270.701 169.629 269.575 170.267 268.303C170.834 267.17 171.454 265.854 172.12 264.44C172.211 264.248 172.302 264.055 172.394 263.859C172.816 262.963 173.259 262.029 173.723 261.069C178.567 268.644 183.841 278.506 189.575 291.146Z" fill="black" stroke="black" stroke-width="3.12947"/>
</svg>
