<svg xmlns="http://www.w3.org/2000/svg" width="211.203" height="46.031" viewBox="0 0 211.203 46.031">
  <g id="Group_8" data-name="Group 8" transform="translate(-2188.765 -518)">
    <g id="CloudMu_Logo_Blue_Crop" transform="translate(2241.565 528.154)">
      <path id="Path_10" data-name="Path 10" d="M4.481,27.735a8.36,8.36,0,0,1-3.29-3.256A9.382,9.382,0,0,1,0,19.76a9.3,9.3,0,0,1,1.191-4.7,8.353,8.353,0,0,1,3.29-3.236,9.646,9.646,0,0,1,4.739-1.158,9.193,9.193,0,0,1,4.15.9,6.9,6.9,0,0,1,2.877,2.64l-1.807,1.225a5.612,5.612,0,0,0-2.254-1.99,6.607,6.607,0,0,0-2.958-.677,6.966,6.966,0,0,0-3.493.866A6.092,6.092,0,0,0,3.316,16.1,7.446,7.446,0,0,0,2.45,19.76a7.446,7.446,0,0,0,.873,3.662,6.092,6.092,0,0,0,2.417,2.45,6.966,6.966,0,0,0,3.493.873,6.769,6.769,0,0,0,2.958-.677,5.524,5.524,0,0,0,2.247-1.977l1.807,1.252a6.769,6.769,0,0,1-2.9,2.64,9.213,9.213,0,0,1-4.116.907,9.646,9.646,0,0,1-4.752-1.158Z" transform="translate(0.002 -3.446)" fill="#3a5da8"/>
      <path id="Path_11" data-name="Path 11" d="M31,0h2.423V25.27H31Z" transform="translate(-10.014)" fill="#3a5da8"/>
      <path id="Path_12" data-name="Path 12" d="M46.627,27.715a8.631,8.631,0,0,1-3.276-3.249,9.308,9.308,0,0,1-1.191-4.7,9.3,9.3,0,0,1,1.191-4.7,8.455,8.455,0,0,1,3.276-3.236,9.978,9.978,0,0,1,9.328,0,8.313,8.313,0,0,1,3.256,3.236,9.43,9.43,0,0,1,1.171,4.7A9.436,9.436,0,0,1,59.211,24.5a8.482,8.482,0,0,1-3.256,3.249,9.822,9.822,0,0,1-9.328,0Zm8.123-1.841a6.052,6.052,0,0,0,2.362-2.464,7.656,7.656,0,0,0,.853-3.649,7.615,7.615,0,0,0-.853-3.642,6.092,6.092,0,0,0-2.362-2.471,7.2,7.2,0,0,0-6.851,0,6.207,6.207,0,0,0-2.383,2.471,7.446,7.446,0,0,0-.866,3.642,7.507,7.507,0,0,0,.866,3.649A6.187,6.187,0,0,0,47.9,25.874,7.155,7.155,0,0,0,54.75,25.874Z" transform="translate(-13.619 -3.447)" fill="#3a5da8"/>
      <path id="Path_13" data-name="Path 13" d="M92.741,10.87V28.782H90.419v-3.27A6.607,6.607,0,0,1,87.8,28.05a7.879,7.879,0,0,1-3.818.907,7.615,7.615,0,0,1-5.531-1.963,7.61,7.61,0,0,1-2.031-5.74V10.87h2.423V21.024a5.967,5.967,0,0,0,1.394,4.292,5.226,5.226,0,0,0,4.021,1.462,5.876,5.876,0,0,0,4.461-1.719,6.681,6.681,0,0,0,1.631-4.786v-9.4Z" transform="translate(-24.688 -3.512)" fill="#3a5da8"/>
      <path id="Path_14" data-name="Path 14" d="M126.328,0V25.27h-2.3v-3.54a7.365,7.365,0,0,1-2.877,2.762,8.435,8.435,0,0,1-4.062.954,9.118,9.118,0,0,1-4.569-1.158,8.313,8.313,0,0,1-3.2-3.236,9.579,9.579,0,0,1-1.158-4.739,9.551,9.551,0,0,1,1.158-4.739,8.191,8.191,0,0,1,3.2-3.222,9.247,9.247,0,0,1,4.569-1.137,8.475,8.475,0,0,1,3.96.907,7.514,7.514,0,0,1,2.877,2.64V0Zm-5.639,22.427a6.16,6.16,0,0,0,2.39-2.464,7.588,7.588,0,0,0,.866-3.649,7.541,7.541,0,0,0-.866-3.642,6.18,6.18,0,0,0-2.39-2.471,6.647,6.647,0,0,0-3.385-.866,6.729,6.729,0,0,0-3.425.866,6.16,6.16,0,0,0-2.383,2.471,7.446,7.446,0,0,0-.866,3.642,7.507,7.507,0,0,0,.866,3.649,6.147,6.147,0,0,0,2.383,2.464,6.769,6.769,0,0,0,3.425.873,6.654,6.654,0,0,0,3.4-.873Z" transform="translate(-34.941)" fill="#3a5da8"/>
      <path id="Path_15" data-name="Path 15" d="M143.977,35.255a1.828,1.828,0,0,1-.528-1.354,1.787,1.787,0,0,1,.528-1.313,1.74,1.74,0,0,1,1.279-.528,1.807,1.807,0,0,1,1.293.528,1.774,1.774,0,0,1,.542,1.313,1.814,1.814,0,0,1-.542,1.354,1.774,1.774,0,0,1-1.293.548,1.713,1.713,0,0,1-1.279-.548Z" transform="translate(-46.343 -10.357)" fill="#3a5da8"/>
      <path id="Path_16" data-name="Path 16" d="M184.743,12.607a7.783,7.783,0,0,1,1.922,5.72V28.711h-2.417V18.557a6.067,6.067,0,0,0-1.354-4.258,4.894,4.894,0,0,0-3.8-1.462,5.72,5.72,0,0,0-4.393,1.719,6.715,6.715,0,0,0-1.6,4.739v9.416H170.69V18.557a6.066,6.066,0,0,0-1.354-4.258,4.948,4.948,0,0,0-3.831-1.462,5.74,5.74,0,0,0-4.38,1.719,6.661,6.661,0,0,0-1.618,4.739v9.416H157.09V10.8h2.315v3.27a6.451,6.451,0,0,1,2.674-2.5,8.272,8.272,0,0,1,3.913-.887,7.636,7.636,0,0,1,3.9.941,5.849,5.849,0,0,1,2.471,2.823,6.979,6.979,0,0,1,2.843-2.775,8.8,8.8,0,0,1,4.244-1,7.087,7.087,0,0,1,5.294,1.943Z" transform="translate(-50.75 -3.442)" fill="#3a5da8"/>
      <path id="Path_17" data-name="Path 17" d="M226.188,10.87V28.782h-2.315v-3.27a6.58,6.58,0,0,1-2.626,2.538,7.873,7.873,0,0,1-3.858.907,7.636,7.636,0,0,1-5.537-1.963,7.61,7.61,0,0,1-2.031-5.74V10.87h2.417V21.024a5.991,5.991,0,0,0,1.394,4.292,5.239,5.239,0,0,0,3.987,1.469,5.876,5.876,0,0,0,4.508-1.726,6.688,6.688,0,0,0,1.638-4.786v-9.4Z" transform="translate(-67.785 -3.512)" fill="#3a5da8"/>
    </g>
    <g id="cloudmu-icon" transform="translate(2188.765 518)">
      <g id="Group_2" data-name="Group 2" transform="translate(0 0)">
        <path id="Path_18" data-name="Path 18" d="M184.59,88.02c.126.106.25.215.371.328C184.84,88.237,184.716,88.126,184.59,88.02Z" transform="translate(-144.507 -68.91)" fill="none"/>
        <path id="Path_19" data-name="Path 19" d="M155.93,76.42a10.781,10.781,0,0,1,1.225.154A10.844,10.844,0,0,0,155.93,76.42Z" transform="translate(-122.07 -59.829)" fill="none"/>
        <path id="Path_20" data-name="Path 20" d="M154.21,76.33c.119,0,.239.011.358.017C154.449,76.341,154.329,76.334,154.21,76.33Z" transform="translate(-120.724 -59.759)" fill="none"/>
        <path id="Path_21" data-name="Path 21" d="M142.86,76.872c.2-.039.41-.074.617-.1C143.273,76.8,143.066,76.833,142.86,76.872Z" transform="translate(-111.839 -60.103)" fill="none"/>
        <path id="Path_22" data-name="Path 22" d="M20.724,141.328A3.764,3.764,0,0,1,20.47,141C20.55,141.115,20.635,141.222,20.724,141.328Z" transform="translate(-16.027 -110.385)" fill="none"/>
        <path id="Path_23" data-name="Path 23" d="M183.4,87.05c.046.035.091.072.135.106C183.491,87.122,183.446,87.085,183.4,87.05Z" transform="translate(-143.575 -68.151)" fill="none"/>
        <path id="Path_24" data-name="Path 24" d="M182.04,86.01l.111.083C182.114,86.064,182.077,86.036,182.04,86.01Z" transform="translate(-142.51 -67.336)" fill="none"/>
        <path id="Path_25" data-name="Path 25" d="M22.223,143.142c-.074-.072-.145-.146-.213-.222C22.079,143,22.149,143.072,22.223,143.142Z" transform="translate(-17.232 -111.888)" fill="none"/>
        <path id="Path_26" data-name="Path 26" d="M180.62,84.99c.024.015.046.033.069.048A.788.788,0,0,1,180.62,84.99Z" transform="translate(-141.399 -66.538)" fill="none"/>
        <path id="Path_27" data-name="Path 27" d="M164.68,77.81l.067.017Z" transform="translate(-128.92 -60.917)" fill="none"/>
        <path id="Path_28" data-name="Path 28" d="M162.75,77.37c.037.009.074.017.111.024C162.824,77.385,162.787,77.377,162.75,77.37Z" transform="translate(-127.409 -60.573)" fill="none"/>
        <path id="Path_29" data-name="Path 29" d="M193.94,98.52c.037.056.076.113.113.172C194.016,98.633,193.979,98.576,193.94,98.52Z" transform="translate(-151.826 -77.13)" fill="none"/>
        <path id="Path_30" data-name="Path 30" d="M35.505,149.315l1.364-.007,14.013-.009-16.2.011C34.915,149.324,35.16,149.315,35.505,149.315Z" transform="translate(-27.151 -116.882)" fill="none"/>
        <path id="Path_31" data-name="Path 31" d="M188.81,92.02a10.829,10.829,0,0,1,.819.986A10.829,10.829,0,0,0,188.81,92.02Z" transform="translate(-147.81 -72.041)" fill="none"/>
        <path id="Path_32" data-name="Path 32" d="M187.7,90.87c.069.069.139.141.208.213Z" transform="translate(-146.941 -71.141)" fill="none"/>
        <path id="Path_33" data-name="Path 33" d="M25.334,145.871c-.1-.061-.193-.124-.284-.191C25.141,145.747,25.237,145.81,25.334,145.871Z" transform="translate(-19.612 -114.049)" fill="none"/>
        <path id="Path_34" data-name="Path 34" d="M27.133,147c-.089-.043-.176-.089-.263-.139C26.957,146.91,27.044,146.956,27.133,147Z" transform="translate(-21.037 -114.972)" fill="none"/>
        <path id="Path_35" data-name="Path 35" d="M23.688,144.578c-.106-.08-.208-.167-.308-.258C23.48,144.409,23.582,144.5,23.688,144.578Z" transform="translate(-18.305 -112.984)" fill="none"/>
        <path id="Path_36" data-name="Path 36" d="M28.93,147.885l.015,0c-.128-.043-.252-.1-.376-.15C28.687,147.792,28.809,147.842,28.93,147.885Z" transform="translate(-22.368 -115.661)" fill="none"/>
        <path id="Path_37" data-name="Path 37" d="M31.24,148.647a4.255,4.255,0,0,1-.83-.187A3.317,3.317,0,0,0,31.24,148.647Z" transform="translate(-23.808 -116.225)" fill="none"/>
        <path id="Path_38" data-name="Path 38" d="M192.87,96.96c.048.067.1.132.141.2C192.966,97.092,192.918,97.025,192.87,96.96Z" transform="translate(-150.989 -75.909)" fill="none"/>
        <path id="Path_39" data-name="Path 39" d="M113.881,93.32c-.106.122-.211.245-.311.371C113.67,93.565,113.774,93.442,113.881,93.32Z" transform="translate(-88.909 -73.059)" fill="none"/>
        <path id="Path_40" data-name="Path 40" d="M111.987,95.83q-.137.179-.267.365Q111.85,96.009,111.987,95.83Z" transform="translate(-87.461 -75.024)" fill="none"/>
        <path id="Path_41" data-name="Path 41" d="M109.977,98.28c-.117.174-.23.352-.337.534C109.746,98.63,109.859,98.454,109.977,98.28Z" transform="translate(-85.833 -76.942)" fill="none"/>
        <path id="Path_42" data-name="Path 42" d="M118.354,88.68c-.122.106-.239.215-.354.326C118.115,88.895,118.235,88.784,118.354,88.68Z" transform="translate(-92.377 -69.427)" fill="none"/>
        <path id="Path_43" data-name="Path 43" d="M108.108,147.053c-.115-.2-.226-.413-.328-.623C107.884,146.643,107.993,146.849,108.108,147.053Z" transform="translate(-84.377 -114.636)" fill="none"/>
        <path id="Path_44" data-name="Path 44" d="M186.49,89.71c.072.065.141.135.208.2Q186.6,89.808,186.49,89.71Z" transform="translate(-145.994 -70.233)" fill="none"/>
        <path id="Path_45" data-name="Path 45" d="M106.42,143.31c.07.172.146.341.224.51C106.565,143.653,106.487,143.484,106.42,143.31Z" transform="translate(-83.312 -112.193)" fill="none"/>
        <path id="Path_46" data-name="Path 46" d="M115.47,91.126q.212-.235.436-.456Q115.682,90.892,115.47,91.126Z" transform="translate(-90.397 -70.985)" fill="none"/>
        <path id="Path_47" data-name="Path 47" d="M120.717,86.75c-.117.091-.232.185-.347.28C120.485,86.935,120.6,86.841,120.717,86.75Z" transform="translate(-94.233 -67.916)" fill="none"/>
        <path id="Path_48" data-name="Path 48" d="M140.659,77.34c-.1.022-.206.043-.311.067-.059.015-.117.033-.178.048C140.331,77.412,140.494,77.375,140.659,77.34Z" transform="translate(-109.733 -60.549)" fill="none"/>
        <path id="Path_49" data-name="Path 49" d="M134.262,78.99c-.2.067-.391.139-.582.217C133.873,79.129,134.067,79.055,134.262,78.99Z" transform="translate(-104.652 -61.841)" fill="none"/>
        <path id="Path_50" data-name="Path 50" d="M137.563,78.13c-.15.041-.3.087-.443.135C137.266,78.217,137.413,78.171,137.563,78.13Z" transform="translate(-107.345 -61.168)" fill="none"/>
        <path id="Path_51" data-name="Path 51" d="M147.929,76.308a10.522,10.522,0,0,0-1.729.083,10.914,10.914,0,0,1,1.362-.087C147.685,76.3,147.807,76.3,147.929,76.308Z" transform="translate(-114.453 -59.736)" fill="none"/>
        <path id="Path_52" data-name="Path 52" d="M131.44,80.29c-.145.061-.289.126-.43.193C131.153,80.414,131.3,80.351,131.44,80.29Z" transform="translate(-102.562 -62.859)" fill="none"/>
        <path id="Path_53" data-name="Path 53" d="M123.2,84.54q-.261.173-.508.358Q122.941,84.713,123.2,84.54Z" transform="translate(-96.049 -66.186)" fill="none"/>
        <path id="Path_54" data-name="Path 54" d="M125.633,83.01c-.178.1-.352.208-.523.321C125.282,83.218,125.455,83.112,125.633,83.01Z" transform="translate(-97.943 -64.988)" fill="none"/>
        <path id="Path_55" data-name="Path 55" d="M128.719,81.62c-.13.065-.261.135-.389.206C128.458,81.755,128.586,81.685,128.719,81.62Z" transform="translate(-100.464 -63.9)" fill="none"/>
        <path id="Path_56" data-name="Path 56" d="M23.025.02A23.016,23.016,0,0,0,.01,22.728v.617A23.014,23.014,0,0,0,22.734,46.051h.582A23.017,23.017,0,0,0,23.025.02Zm17.95,19.944c.011.013.022.024.035.037a10.539,10.539,0,0,1,.819.986c.022.028.043.059.063.087.048.067.1.132.141.2.03.046.063.091.093.139s.076.113.113.172c.067.106.135.213.2.324h0a10.767,10.767,0,0,1,1.338,3.761,11.1,11.1,0,0,1,.126,1.379h0A10.758,10.758,0,0,1,33.122,37.9a10.981,10.981,0,0,1-1.446-.1,10.853,10.853,0,0,1-7.931-5.359l-14.013.009-1.364.007c-.345,0-.591.007-.823,0H7.482l-.035-.007a3.417,3.417,0,0,1-.83-.187l-.024-.007-.015,0c-.124-.043-.243-.093-.363-.145-.035-.015-.069-.035-.106-.052-.089-.043-.176-.089-.263-.139l-.113-.065c-.1-.061-.193-.124-.284-.191L5.4,31.621a3.884,3.884,0,0,1-.308-.258L5,31.282c-.074-.072-.145-.145-.213-.222-.026-.03-.054-.059-.08-.089a3.768,3.768,0,0,1-.254-.328,6.45,6.45,0,0,1-1.236-4.176,5.542,5.542,0,0,1,5.535-5.279l.143,0c.007-.122.011-.245.022-.365a11.284,11.284,0,0,1,21.7-3.939c.1-.024.206-.046.311-.067l.1-.022c.206-.041.41-.074.617-.1.037,0,.074-.009.111-.015a11.024,11.024,0,0,1,1.729-.083H33.5c.119,0,.239.011.358.017a.048.048,0,0,1,.017,0,10.908,10.908,0,0,1,1.225.154c.085.015.169.033.254.05l.111.024c.1.022.206.048.308.072l.067.017a10.755,10.755,0,0,1,3.394,1.542c.024.015.046.033.069.048.08.056.161.113.239.172l.111.083c.063.048.124.1.185.143.046.035.091.072.135.106l.124.1c.126.106.25.215.371.328.013.013.028.024.041.037.072.065.141.135.208.2l.052.052C40.838,19.821,40.908,19.89,40.975,19.964Z" transform="translate(-0.01 -0.02)" fill="#3a5da8"/>
        <path id="Path_57" data-name="Path 57" d="M126.514,79.428l-.208-.2c-.013-.013-.028-.024-.041-.037-.122-.113-.245-.221-.371-.328l-.124-.1c-.043-.037-.089-.072-.135-.106-.061-.048-.124-.1-.185-.143l-.111-.083c-.078-.059-.159-.115-.239-.172-.024-.015-.046-.033-.069-.048a10.755,10.755,0,0,0-3.394-1.542l-.067-.017c-.1-.026-.206-.05-.308-.072-.037-.009-.074-.017-.111-.024-.085-.017-.169-.035-.254-.05a10.847,10.847,0,0,0-1.225-.154.048.048,0,0,1-.017,0c-.119-.009-.239-.013-.358-.017h-.009q-.182-.007-.365-.007a10.887,10.887,0,0,0-1.362.087c-.037,0-.074.009-.111.015-.206.028-.413.061-.617.1l-.1.022c-.163.035-.326.072-.489.113-.074.02-.148.037-.219.059-.15.041-.3.087-.443.135-.054.017-.109.033-.163.052-.2.067-.391.139-.582.217-.05.02-.1.043-.15.065-.145.061-.289.126-.43.193-.065.03-.13.063-.193.1-.13.065-.261.135-.389.206-.059.033-.117.063-.176.1-.178.1-.352.208-.523.321l-.017.011q-.261.173-.508.358l-.156.119c-.117.091-.232.185-.347.28-.054.046-.109.091-.161.139-.122.106-.239.215-.354.326-.037.037-.076.069-.113.106q-.225.222-.436.456c-.035.039-.067.08-.1.119-.106.122-.211.245-.311.371-.046.056-.089.113-.132.172q-.137.179-.267.365l-.117.167c-.117.174-.23.352-.337.534,0,0-.007.009-.009.013h18.626c-.063-.109-.13-.217-.2-.324-.037-.056-.074-.115-.113-.172s-.061-.093-.093-.139c-.046-.067-.093-.135-.141-.2-.022-.028-.041-.059-.063-.087a10.768,10.768,0,0,0-.819-.986c-.011-.013-.022-.024-.035-.037-.067-.072-.137-.143-.208-.213A.41.41,0,0,0,126.514,79.428Z" transform="translate(-85.809 -59.751)" fill="#eb2436"/>
        <path id="Path_58" data-name="Path 58" d="M102.79,105.94h21.566a11.026,11.026,0,0,0-.126-1.379,10.724,10.724,0,0,0-1.338-3.761H104.267A10.731,10.731,0,0,0,102.79,105.94Z" transform="translate(-80.47 -78.915)" fill="#131a6d"/>
        <path id="Path_59" data-name="Path 59" d="M103.586,128.553c.069.172.145.341.224.51.026.054.048.113.074.167.1.211.211.419.328.623H122.97a10.759,10.759,0,0,0,1.4-5.394H102.8A11,11,0,0,0,103.586,128.553Z" transform="translate(-80.478 -97.437)" fill="#ffd600"/>
        <path id="Path_60" data-name="Path 60" d="M109.29,149.292a10.849,10.849,0,0,0,7.931,5.359,10.981,10.981,0,0,0,1.446.1,10.864,10.864,0,0,0,9.381-5.457H109.29Z" transform="translate(-85.559 -116.875)" fill="#00a650"/>
        <path id="Path_61" data-name="Path 61" d="M34.854,67.278c-.078-.169-.154-.339-.224-.51a11.048,11.048,0,0,1-.786-4.093,10.746,10.746,0,0,1,1.477-5.142s.007-.009.009-.013c.106-.182.222-.358.337-.534.037-.056.078-.111.117-.167q.13-.186.267-.365l.132-.172c.1-.126.2-.25.311-.371.035-.039.067-.08.1-.119q.212-.235.436-.456c.037-.037.076-.072.113-.106.115-.111.235-.222.354-.326l.161-.139c.113-.1.23-.189.347-.28.052-.041.1-.08.156-.119.167-.124.334-.245.508-.358l.017-.011c.172-.113.345-.219.523-.321l.176-.1c.128-.072.258-.139.389-.206.065-.033.128-.065.193-.1.141-.067.287-.132.43-.193l.15-.065c.191-.078.387-.15.582-.217l.163-.052c.148-.048.3-.093.443-.135l.219-.059c.059-.015.117-.033.178-.048a11.284,11.284,0,0,0-21.7,3.939c-.009.119-.015.243-.022.365l-.143,0a5.543,5.543,0,0,0-5.535,5.279,6.437,6.437,0,0,0,1.236,4.176,4.131,4.131,0,0,0,.254.328c.026.03.052.061.08.089.069.076.141.15.213.221.028.026.054.054.085.08.1.091.2.178.308.258l.052.037c.093.067.189.132.284.191l.113.065c.087.05.174.1.263.139l.106.052a3.979,3.979,0,0,0,.376.15l.024.007a4.169,4.169,0,0,0,.83.187l.035.007h.063l16.2-.011c-.115-.2-.226-.413-.328-.623A1.379,1.379,0,0,1,34.854,67.278Z" transform="translate(-11.522 -35.651)" fill="#fff"/>
      </g>
    </g>
  </g>
</svg>
